<svg id="Layer_1" height="20" viewBox="0 0 128 128" width="40" xmlns="http://www.w3.org/2000/svg" data-name="Layer 1"><path d="m118.655 15.763h-109.31a1.75 1.75 0 0 0 -1.75 1.75v73.918a1.75 1.75 0 0 0 1.75 1.75h45.888l-3.644 10.969h-8.1a4.965 4.965 0 0 0 0 9.93h41.021a4.965 4.965 0 1 0 0-9.93h-8.1l-3.643-10.969h45.889a1.75 1.75 0 0 0 1.75-1.75v-73.918a1.75 1.75 0 0 0 -1.751-1.75zm-107.561 3.5h105.811v2.264h-105.81zm105.811 5.764v55.4h-105.81v-55.4zm-30.93 84.087a1.467 1.467 0 0 1 -1.465 1.465h-41.02a1.465 1.465 0 0 1 0-2.93h41.02a1.467 1.467 0 0 1 1.465 1.465zm-13.253-4.965h-17.444l3.644-10.969h10.156zm44.184-14.469h-105.811v-5.751h105.81z"/><path d="m57.69 88.555h12.62a1.75 1.75 0 0 0 0-3.5h-12.62a1.75 1.75 0 0 0 0 3.5z"/></svg>